<svg width="25" height="25" viewBox="0 0 25 25" fill="none" xmlns="http://www.w3.org/2000/svg">
<path d="M6.37402 17.4956C5.74756 17.5874 4.71631 17.7583 4.03027 16.98C3.34424 16.2017 2.75097 14.3223 2.49023 12.6426C2.10547 10.167 2.4873 8.08057 3.56445 6.76807C4.19922 5.99512 5.03222 5.54736 5.97363 5.47607C6.77978 5.41406 7.98437 5.72949 9.14746 7.58496C9.87597 8.74756 10.4302 10.292 10.668 11.8218C10.9551 13.6685 11.2349 15.6392 10.2559 16.3457C9.70361 16.7446 9.30713 16.8828 8.37011 17.106C7.59961 17.2891 7.00097 17.4033 6.37402 17.4956ZM5.25976 19.084L10.5767 17.9873C11.0259 17.8945 11.3862 18.1416 11.5532 18.8818C12.1011 21.3115 11.3159 24.2187 8.85693 24.2187C6.52832 24.2187 4.97656 21.5645 4.72314 20.1377C4.60742 19.4907 4.77246 19.1841 5.25976 19.084ZM16.6304 12.4189C15.6934 12.1968 15.2969 12.0576 14.7446 11.6587C13.7656 10.9521 14.0454 8.98144 14.3325 7.13477C14.5703 5.60498 15.1245 4.05859 15.853 2.89795C17.0151 1.04248 18.2197 0.72705 19.0269 0.789062C19.9673 0.860839 20.8008 1.30762 21.4355 2.08057C22.5137 3.39307 22.8955 5.47949 22.5098 7.95508C22.2485 9.63477 21.6572 11.5078 20.9673 12.2925C20.2773 13.0771 19.252 12.8999 18.6235 12.8081C17.9951 12.7163 17.4004 12.6016 16.6304 12.4189ZM19.7402 14.3965L14.4233 13.2998C13.9741 13.207 13.6138 13.4541 13.4468 14.1943C12.8994 16.624 13.6846 19.5312 16.1436 19.5312C18.4722 19.5312 20.0239 16.877 20.2773 15.4502C20.3926 14.8032 20.2275 14.4966 19.7402 14.3965Z" fill="#0D99FF"/>
</svg>
