<svg width="142" height="38" viewBox="0 0 142 38" fill="none" xmlns="http://www.w3.org/2000/svg">
<path d="M11.256 25.288C10.392 25.288 9.52 25.192 8.64 25C7.776 24.808 6.992 24.544 6.288 24.208C6.016 24.08 5.856 23.896 5.808 23.656C5.76 23.4 5.832 23.096 6.024 22.744C6.152 22.472 6.32 22.304 6.528 22.24C6.736 22.176 6.968 22.216 7.224 22.36C7.768 22.648 8.408 22.88 9.144 23.056C9.896 23.216 10.64 23.296 11.376 23.296C12.272 23.296 13.104 23.16 13.872 22.888C14.656 22.6 15.336 22.192 15.912 21.664C16.488 21.136 16.936 20.52 17.256 19.816C17.592 19.096 17.76 18.312 17.76 17.464C17.76 16.664 17.608 15.968 17.304 15.376C17 14.768 16.544 14.248 15.936 13.816C15.344 13.384 14.592 13.056 13.68 12.832C13.408 12.992 13.104 13.112 12.768 13.192C12.448 13.272 12.16 13.312 11.904 13.312C11.504 13.312 11.176 13.2 10.92 12.976C10.664 12.752 10.536 12.488 10.536 12.184C10.536 11.912 10.616 11.672 10.776 11.464C10.952 11.24 11.176 11.072 11.448 10.96C11.736 10.832 12.056 10.768 12.408 10.768C12.648 10.768 12.904 10.8 13.176 10.864C13.464 10.912 13.736 10.992 13.992 11.104C14.632 10.928 15.232 10.696 15.792 10.408C16.368 10.12 16.88 9.792 17.328 9.424C17.776 9.04 18.16 8.624 18.48 8.176C18.816 7.712 19.064 7.224 19.224 6.712C19.4 6.2 19.488 5.672 19.488 5.128C19.488 4.632 19.384 4.2 19.176 3.832C18.968 3.448 18.656 3.152 18.24 2.944C17.84 2.736 17.328 2.632 16.704 2.632C16.016 2.632 15.296 2.792 14.544 3.112C13.808 3.432 13.072 3.896 12.336 4.504C11.6 5.112 10.888 5.848 10.2 6.712C9.512 7.576 8.864 8.544 8.256 9.616C7.664 10.672 7.152 11.824 6.72 13.072L2.976 24.664C2.912 24.888 2.784 25.056 2.592 25.168C2.4 25.28 2.12 25.336 1.752 25.336C1.4 25.336 1.136 25.28 0.96 25.168C0.784 25.056 0.736 24.872 0.816 24.616L7.032 5.536C6.632 5.936 6.208 6.32 5.76 6.688C5.312 7.056 4.84 7.424 4.344 7.792C3.864 8.144 3.352 8.512 2.808 8.896C2.472 9.12 2.192 9.192 1.968 9.112C1.744 9.032 1.544 8.848 1.368 8.56C1.208 8.304 1.144 8.064 1.176 7.84C1.208 7.6 1.376 7.392 1.68 7.216C2.624 6.624 3.496 6.024 4.296 5.416C5.112 4.792 5.856 4.144 6.528 3.472C7.2 2.784 7.784 2.072 8.28 1.336C8.472 1.064 8.648 0.879999 8.808 0.783998C8.968 0.687998 9.224 0.639997 9.576 0.639997C9.944 0.639997 10.208 0.695998 10.368 0.808C10.544 0.919999 10.584 1.104 10.488 1.36L9.24 5.2C9.832 4.464 10.44 3.816 11.064 3.256C11.704 2.696 12.344 2.224 12.984 1.84C13.64 1.44 14.288 1.144 14.928 0.951998C15.584 0.743998 16.224 0.639997 16.848 0.639997C17.856 0.639997 18.712 0.823998 19.416 1.192C20.136 1.544 20.688 2.056 21.072 2.728C21.472 3.384 21.672 4.168 21.672 5.08C21.672 5.896 21.52 6.68 21.216 7.432C20.912 8.168 20.488 8.848 19.944 9.472C19.4 10.08 18.76 10.6 18.024 11.032C17.304 11.464 16.52 11.776 15.672 11.968L15.624 12.016C16.536 12.304 17.312 12.72 17.952 13.264C18.608 13.808 19.104 14.456 19.44 15.208C19.776 15.944 19.944 16.76 19.944 17.656C19.944 18.76 19.72 19.776 19.272 20.704C18.824 21.632 18.2 22.44 17.4 23.128C16.6 23.816 15.672 24.352 14.616 24.736C13.576 25.104 12.456 25.288 11.256 25.288ZM16.8669 25.408C16.5629 25.408 16.3629 25.312 16.2669 25.12C16.1549 24.944 16.1229 24.744 16.1709 24.52C16.2189 24.28 16.3389 24.072 16.5309 23.896C16.7229 23.704 16.9709 23.608 17.2749 23.608C17.8349 23.608 18.4189 23.44 19.0269 23.104C19.6349 22.768 20.2829 22.24 20.9709 21.52C21.6589 20.8 22.3869 19.856 23.1549 18.688C23.9229 17.52 24.7469 16.104 25.6269 14.44L26.9469 15.088C25.9869 17.024 25.0829 18.656 24.2349 19.984C23.3869 21.296 22.5549 22.352 21.7389 23.152C20.9389 23.952 20.1389 24.528 19.3389 24.88C18.5389 25.232 17.7149 25.408 16.8669 25.408ZM30.8109 25.408C30.1069 25.408 29.5869 25.28 29.2509 25.024C28.9149 24.768 28.6989 24.44 28.6029 24.04C28.5069 23.64 28.4909 23.232 28.5549 22.816C28.6349 22.384 28.7309 22.008 28.8429 21.688C28.9069 21.496 29.0269 21.184 29.2029 20.752C29.3789 20.32 29.5789 19.832 29.8029 19.288C30.0269 18.728 30.2429 18.16 30.4509 17.584C30.6749 17.008 30.8589 16.48 31.0029 16C31.1309 15.52 31.1549 15.192 31.0749 15.016C31.0109 14.824 30.8109 14.728 30.4749 14.728C30.1069 14.728 29.7149 14.808 29.2989 14.968C28.8829 15.112 28.4509 15.264 28.0029 15.424C27.5549 15.568 27.0829 15.64 26.5869 15.64C26.2989 15.64 26.0509 15.52 25.8429 15.28C25.6349 15.04 25.4669 14.736 25.3389 14.368C25.2269 13.984 25.1709 13.584 25.1709 13.168C25.1709 12.832 25.2269 12.52 25.3389 12.232C25.4509 11.928 25.6269 11.68 25.8669 11.488C26.1229 11.296 26.4429 11.2 26.8269 11.2C27.1469 11.2 27.4029 11.304 27.5949 11.512C27.7869 11.72 27.8829 11.984 27.8829 12.304C27.8829 12.512 27.8509 12.744 27.7869 13C27.7389 13.24 27.6269 13.488 27.4509 13.744C27.5949 13.744 27.8029 13.696 28.0749 13.6C28.3629 13.488 28.6909 13.36 29.0589 13.216C29.4429 13.072 29.8429 12.952 30.2589 12.856C30.6909 12.744 31.1149 12.688 31.5309 12.688C32.0269 12.688 32.4189 12.808 32.7069 13.048C33.0109 13.288 33.1949 13.656 33.2589 14.152C33.3229 14.632 33.2509 15.264 33.0429 16.048C32.9309 16.496 32.7629 17.016 32.5389 17.608C32.3309 18.184 32.1069 18.768 31.8669 19.36C31.6429 19.936 31.4349 20.464 31.2429 20.944C31.0669 21.408 30.9469 21.752 30.8829 21.976C30.7389 22.456 30.6749 22.848 30.6909 23.152C30.7069 23.456 30.8989 23.608 31.2669 23.608C31.4909 23.608 31.6509 23.704 31.7469 23.896C31.8589 24.072 31.8989 24.28 31.8669 24.52C31.8509 24.744 31.7549 24.944 31.5789 25.12C31.4029 25.312 31.1469 25.408 30.8109 25.408ZM30.8201 25.408C30.5961 25.408 30.4281 25.312 30.3161 25.12C30.2041 24.944 30.1641 24.744 30.1961 24.52C30.2121 24.28 30.3081 24.072 30.4841 23.896C30.6601 23.704 30.9161 23.608 31.2521 23.608C31.6361 23.608 32.0761 23.416 32.5721 23.032C33.0521 22.648 33.6201 22.048 34.2761 21.232C34.9321 20.4 35.7081 19.32 36.6041 17.992C37.5001 16.648 38.5481 15.024 39.7481 13.12C39.8921 12.896 40.0761 12.8 40.3001 12.832C40.5401 12.864 40.7321 12.968 40.8761 13.144C41.0201 13.32 41.0281 13.512 40.9001 13.72C39.5401 16.024 38.3641 17.936 37.3721 19.456C36.3961 20.96 35.5401 22.152 34.8041 23.032C34.0681 23.896 33.3881 24.512 32.7641 24.88C32.1241 25.232 31.4761 25.408 30.8201 25.408ZM38.7636 25.408C38.0596 25.408 37.5316 25.28 37.1796 25.024C36.8436 24.768 36.6356 24.44 36.5556 24.04C36.4756 23.624 36.4756 23.192 36.5556 22.744C36.6356 22.28 36.7396 21.848 36.8676 21.448L39.5076 13.408C39.6196 13.088 39.7476 12.88 39.8916 12.784C40.0516 12.688 40.2836 12.64 40.5876 12.64C41.0836 12.64 41.3956 12.72 41.5236 12.88C41.6676 13.024 41.6836 13.256 41.5716 13.576L39.0036 21.424C38.7156 22.272 38.5796 22.848 38.5956 23.152C38.6276 23.456 38.8276 23.608 39.1956 23.608C39.4196 23.608 39.5876 23.704 39.6996 23.896C39.8116 24.072 39.8516 24.28 39.8196 24.52C39.8036 24.744 39.7076 24.944 39.5316 25.12C39.3556 25.312 39.0996 25.408 38.7636 25.408ZM42.0756 8.944C41.7556 8.944 41.4836 8.84 41.2596 8.632C41.0356 8.424 40.9236 8.12 40.9236 7.72C40.9236 7.288 41.0596 6.88 41.3316 6.496C41.6196 6.112 42.0596 5.92 42.6516 5.92C42.9876 5.92 43.2676 6.024 43.4916 6.232C43.7156 6.424 43.8276 6.728 43.8276 7.144C43.8276 7.576 43.6836 7.984 43.3956 8.368C43.1236 8.752 42.6836 8.944 42.0756 8.944ZM38.6482 25.408C38.4242 25.408 38.2562 25.312 38.1442 25.12C38.0322 24.944 37.9922 24.744 38.0242 24.52C38.0402 24.28 38.1362 24.072 38.3122 23.896C38.4882 23.704 38.7442 23.608 39.0802 23.608C39.4962 23.608 39.9362 23.456 40.4002 23.152C40.8642 22.848 41.3442 22.424 41.8402 21.88C42.3202 21.336 42.8163 20.696 43.3283 19.96C43.8403 19.224 44.3603 18.424 44.8883 17.56C45.0163 17.352 45.1923 17.264 45.4163 17.296C45.6403 17.328 45.8243 17.432 45.9683 17.608C46.1123 17.768 46.1203 17.952 45.9923 18.16C45.3043 19.36 44.6483 20.416 44.0243 21.328C43.4163 22.24 42.8243 23 42.2482 23.608C41.6562 24.2 41.0722 24.648 40.4962 24.952C39.9042 25.256 39.2882 25.408 38.6482 25.408ZM45.1523 37.456C44.3043 37.456 43.6083 37.216 43.0643 36.736C42.5362 36.272 42.2722 35.664 42.2722 34.912C42.2722 34.352 42.3842 33.792 42.6082 33.232C42.8163 32.688 43.1283 32.136 43.5443 31.576C43.9603 31.016 44.4803 30.44 45.1043 29.848C45.7443 29.272 46.4803 28.664 47.3123 28.024C47.7283 27.72 48.1203 27.432 48.4883 27.16C48.8723 26.888 49.2563 26.616 49.6403 26.344C50.0243 26.088 50.4243 25.824 50.8403 25.552L52.2803 21.088C51.5923 22.064 50.9043 22.872 50.2163 23.512C49.5443 24.152 48.8963 24.632 48.2723 24.952C47.6483 25.256 47.0563 25.408 46.4963 25.408C45.9523 25.408 45.4803 25.264 45.0803 24.976C44.6803 24.688 44.3683 24.28 44.1443 23.752C43.9203 23.224 43.8083 22.6 43.8083 21.88C43.8083 21.144 43.9203 20.352 44.1443 19.504C44.3683 18.656 44.7043 17.824 45.1523 17.008C45.6003 16.192 46.1443 15.448 46.7843 14.776C47.4243 14.104 48.1603 13.568 48.9922 13.168C49.8403 12.752 50.7683 12.544 51.7763 12.544C52.0963 12.544 52.4243 12.576 52.7603 12.64C53.0963 12.688 53.4403 12.768 53.7923 12.88C54.1443 12.992 54.4803 13.128 54.8003 13.288L54.8723 13.144C54.9523 12.952 55.0723 12.824 55.2323 12.76C55.3923 12.68 55.6003 12.64 55.8563 12.64C56.3523 12.64 56.6643 12.72 56.7923 12.88C56.9363 13.024 56.9523 13.256 56.8403 13.576L51.1523 31C50.7683 32.152 50.3763 33.136 49.9763 33.952C49.5763 34.768 49.1443 35.432 48.6803 35.944C48.2163 36.472 47.6883 36.856 47.0963 37.096C46.5203 37.336 45.8723 37.456 45.1523 37.456ZM45.5123 35.608C45.9923 35.608 46.4403 35.448 46.8563 35.128C47.2723 34.808 47.6643 34.296 48.0323 33.592C48.4163 32.904 48.7763 32.008 49.1123 30.904L50.0003 28.192C49.7763 28.336 49.5523 28.488 49.3283 28.648C49.1043 28.808 48.8802 28.968 48.6562 29.128C48.4323 29.288 48.2083 29.456 47.9843 29.632C47.3443 30.144 46.7923 30.632 46.3283 31.096C45.8803 31.56 45.5123 31.992 45.2243 32.392C44.9523 32.792 44.7443 33.168 44.6003 33.52C44.4723 33.888 44.4083 34.24 44.4083 34.576C44.4083 34.768 44.4483 34.944 44.5283 35.104C44.6083 35.264 44.7283 35.384 44.8883 35.464C45.0643 35.56 45.2723 35.608 45.5123 35.608ZM47.1923 23.488C47.7523 23.488 48.3923 23.2 49.1123 22.624C49.8483 22.032 50.6243 21.176 51.4403 20.056C52.2723 18.936 53.1123 17.56 53.9603 15.928L54.2723 14.968C53.7283 14.744 53.2163 14.6 52.7363 14.536C52.2723 14.472 51.8403 14.44 51.4403 14.44C50.7523 14.44 50.1203 14.6 49.5443 14.92C48.9843 15.24 48.4803 15.664 48.0323 16.192C47.6003 16.704 47.2323 17.28 46.9283 17.92C46.6243 18.544 46.3923 19.168 46.2323 19.792C46.0723 20.416 45.9923 20.984 45.9923 21.496C45.9923 21.896 46.0403 22.248 46.1363 22.552C46.2323 22.856 46.3683 23.088 46.5443 23.248C46.7363 23.408 46.9523 23.488 47.1923 23.488ZM52.2506 26.656C52.0426 26.768 51.8426 26.784 51.6506 26.704C51.4586 26.624 51.3146 26.488 51.2186 26.296C51.1226 26.104 51.0986 25.896 51.1466 25.672C51.1946 25.448 51.3306 25.264 51.5546 25.12C52.8186 24.336 53.9626 23.552 54.9866 22.768C55.9946 21.984 56.9226 21.16 57.7706 20.296C58.6186 19.432 59.4186 18.52 60.1706 17.56C60.9386 16.6 61.6986 15.568 62.4506 14.464C62.6746 14.144 62.8826 14.016 63.0746 14.08C63.2826 14.144 63.4106 14.32 63.4586 14.608C63.5066 14.896 63.4106 15.232 63.1706 15.616C62.4026 16.816 61.6346 17.928 60.8666 18.952C60.0986 19.976 59.2826 20.928 58.4186 21.808C57.5706 22.688 56.6426 23.528 55.6346 24.328C54.6266 25.112 53.4986 25.888 52.2506 26.656ZM70.1066 25.408C69.4026 25.408 68.8746 25.272 68.5226 25C68.1866 24.744 67.9786 24.416 67.8986 24.016C67.8186 23.6 67.8186 23.168 67.8986 22.72C67.9786 22.256 68.0826 21.832 68.2106 21.448L69.8426 16.744C69.9866 16.328 70.0746 15.952 70.1066 15.616C70.1546 15.264 70.0986 14.984 69.9386 14.776C69.7946 14.568 69.4986 14.464 69.0506 14.464C68.5066 14.464 67.8986 14.704 67.2266 15.184C66.5706 15.664 65.8906 16.336 65.1866 17.2C64.4826 18.064 63.7866 19.088 63.0986 20.272C62.4266 21.44 61.8026 22.728 61.2266 24.136L61.1066 21.976C61.7146 20.488 62.3626 19.168 63.0506 18.016C63.7386 16.848 64.4586 15.856 65.2106 15.04C65.9626 14.224 66.7226 13.608 67.4906 13.192C68.2746 12.76 69.0586 12.544 69.8426 12.544C70.5786 12.544 71.1466 12.728 71.5466 13.096C71.9626 13.448 72.1866 13.976 72.2186 14.68C72.2666 15.384 72.1146 16.256 71.7626 17.296L70.3466 21.424C70.0586 22.256 69.9226 22.832 69.9386 23.152C69.9706 23.456 70.1786 23.608 70.5626 23.608C70.7866 23.608 70.9466 23.704 71.0426 23.896C71.1546 24.072 71.1946 24.28 71.1626 24.52C71.1466 24.744 71.0506 24.944 70.8746 25.12C70.6986 25.312 70.4426 25.408 70.1066 25.408ZM59.9066 25.36C59.6506 25.36 59.4106 25.304 59.1866 25.192C58.9626 25.08 58.8986 24.872 58.9946 24.568L65.0906 5.896C65.6826 4.024 66.3386 2.664 67.0586 1.816C67.7946 0.967999 68.6746 0.543999 69.6986 0.543999C70.2266 0.543999 70.6746 0.663999 71.0426 0.903998C71.4266 1.144 71.7226 1.48 71.9306 1.912C72.1546 2.328 72.2666 2.808 72.2666 3.352C72.2666 3.784 72.2026 4.248 72.0746 4.744C71.9466 5.224 71.7626 5.736 71.5226 6.28C71.2986 6.808 71.0106 7.368 70.6586 7.96C70.3226 8.536 69.9226 9.128 69.4586 9.736C69.0106 10.328 68.5146 10.936 67.9706 11.56C67.4266 12.168 66.8266 12.792 66.1706 13.432C65.5306 14.056 64.8426 14.688 64.1066 15.328L61.0346 24.736C60.9706 24.944 60.8586 25.096 60.6986 25.192C60.5386 25.304 60.2746 25.36 59.9066 25.36ZM64.9946 12.616C65.5066 12.088 65.9866 11.552 66.4346 11.008C66.8986 10.464 67.3226 9.92 67.7066 9.376C68.1066 8.832 68.4666 8.304 68.7866 7.792C69.1066 7.264 69.3706 6.752 69.5786 6.256C69.8026 5.76 69.9706 5.288 70.0826 4.84C70.2106 4.376 70.2746 3.944 70.2746 3.544C70.2746 3.32 70.2426 3.128 70.1786 2.968C70.1146 2.808 70.0186 2.688 69.8906 2.608C69.7626 2.512 69.6026 2.464 69.4106 2.464C69.1546 2.464 68.9066 2.576 68.6666 2.8C68.4266 3.008 68.1786 3.4 67.9226 3.976C67.6666 4.552 67.3626 5.376 67.0106 6.448L64.9946 12.616ZM70.1014 25.408C69.8774 25.408 69.7094 25.312 69.5974 25.12C69.4854 24.944 69.4454 24.744 69.4774 24.52C69.4934 24.28 69.5894 24.072 69.7654 23.896C69.9414 23.704 70.1974 23.608 70.5334 23.608C70.9174 23.608 71.3654 23.456 71.8774 23.152C72.3894 22.848 72.9814 22.36 73.6534 21.688C74.3094 21 75.0534 20.096 75.8854 18.976C76.7334 17.84 77.6694 16.448 78.6934 14.8C78.8374 14.576 79.0214 14.48 79.2454 14.512C79.4854 14.544 79.6694 14.648 79.7974 14.824C79.9414 15 79.9494 15.192 79.8214 15.4C78.6214 17.416 77.5574 19.072 76.6294 20.368C75.7014 21.664 74.8614 22.68 74.1094 23.416C73.3574 24.152 72.6614 24.672 72.0214 24.976C71.3654 25.264 70.7254 25.408 70.1014 25.408ZM79.2934 25.408C78.5414 25.408 77.9254 25.24 77.4454 24.904C76.9814 24.552 76.6454 24.096 76.4374 23.536C76.2294 22.96 76.1414 22.32 76.1734 21.616C76.2054 20.912 76.3414 20.2 76.5814 19.48L78.0934 14.92H76.2694C76.0934 14.92 75.9734 14.84 75.9094 14.68C75.8454 14.52 75.8534 14.28 75.9334 13.96C76.0294 13.64 76.1574 13.4 76.3174 13.24C76.4774 13.08 76.6454 13 76.8214 13H78.7414L80.3014 8.248C80.3974 7.928 80.5174 7.72 80.6614 7.624C80.8214 7.528 81.0614 7.48 81.3814 7.48C81.8934 7.48 82.2134 7.56 82.3414 7.72C82.4694 7.864 82.4774 8.096 82.3654 8.416L80.8294 13H83.8534C84.0294 13 84.1494 13.08 84.2134 13.24C84.2934 13.384 84.2854 13.624 84.1894 13.96C84.1094 14.264 83.9894 14.504 83.8294 14.68C83.6694 14.84 83.5014 14.92 83.3254 14.92H80.2054L78.6214 19.696C78.3974 20.368 78.2694 20.952 78.2374 21.448C78.2214 21.944 78.2694 22.352 78.3814 22.672C78.5094 22.992 78.6934 23.232 78.9334 23.392C79.1734 23.536 79.4454 23.608 79.7494 23.608C79.9734 23.608 80.1414 23.704 80.2534 23.896C80.3654 24.072 80.4054 24.28 80.3734 24.52C80.3414 24.744 80.2374 24.944 80.0614 25.12C79.8854 25.312 79.6294 25.408 79.2934 25.408ZM79.4066 25.408C79.1026 25.408 78.9026 25.312 78.8066 25.12C78.6946 24.944 78.6626 24.744 78.7106 24.52C78.7586 24.28 78.8786 24.072 79.0706 23.896C79.2626 23.704 79.5106 23.608 79.8146 23.608C80.2946 23.608 80.8146 23.424 81.3746 23.056C81.9186 22.688 82.5506 22.096 83.2706 21.28C83.9746 20.448 84.8066 19.352 85.7666 17.992C86.7266 16.616 87.8386 14.928 89.1026 12.928C89.2306 12.72 89.4066 12.64 89.6306 12.688C89.8706 12.736 90.0626 12.848 90.2066 13.024C90.3666 13.2 90.3826 13.392 90.2546 13.6C88.9906 15.808 87.8546 17.672 86.8466 19.192C85.8386 20.696 84.9186 21.904 84.0866 22.816C83.2546 23.728 82.4626 24.392 81.7106 24.808C80.9586 25.208 80.1906 25.408 79.4066 25.408ZM92.6061 25.408C92.2701 25.408 91.9341 25.384 91.5981 25.336C91.2621 25.288 90.9021 25.256 90.5181 25.24C90.1501 25.224 89.7261 25.264 89.2461 25.36L89.5341 24.808C90.1261 24.552 90.6541 24.336 91.1181 24.16C91.5821 23.984 91.9741 23.848 92.2941 23.752C92.6301 23.656 92.8781 23.608 93.0381 23.608C93.1821 23.608 93.2781 23.704 93.3261 23.896C93.3741 24.072 93.3741 24.28 93.3261 24.52C93.2941 24.744 93.2141 24.944 93.0861 25.12C92.9581 25.312 92.7981 25.408 92.6061 25.408ZM88.5981 25.456C87.8141 25.456 87.1021 25.336 86.4621 25.096C85.8381 24.856 85.4061 24.6 85.1661 24.328C84.9261 24.072 84.8141 23.856 84.8301 23.68C84.8461 23.488 84.9581 23.296 85.1661 23.104C85.3581 22.912 85.5261 22.824 85.6701 22.84C85.8301 22.856 86.0381 22.952 86.2941 23.128C86.5661 23.304 86.8861 23.464 87.2541 23.608C87.6381 23.736 88.0461 23.8 88.4781 23.8C89.3101 23.8 89.9581 23.6 90.4221 23.2C90.8861 22.8 91.1181 22.248 91.1181 21.544C91.1181 21.144 91.0541 20.744 90.9261 20.344C90.7981 19.928 90.6301 19.512 90.4221 19.096C90.2141 18.68 89.9981 18.256 89.7741 17.824C89.5501 17.392 89.3341 16.944 89.1261 16.48C88.9181 16.016 88.7501 15.536 88.6221 15.04C88.4941 14.528 88.4301 14 88.4301 13.456C88.4301 12.608 88.6221 12.008 89.0061 11.656C89.4061 11.288 89.8221 11.104 90.2541 11.104C90.6221 11.104 90.9021 11.208 91.0941 11.416C91.3021 11.608 91.4061 11.856 91.4061 12.16C91.4061 12.48 91.2781 12.824 91.0221 13.192C90.7821 13.56 90.5261 13.904 90.2541 14.224C90.2541 14.608 90.3261 14.992 90.4701 15.376C90.6141 15.744 90.7981 16.128 91.0221 16.528C91.2461 16.912 91.4781 17.304 91.7181 17.704C91.9741 18.104 92.2141 18.52 92.4381 18.952C92.6621 19.368 92.8461 19.8 92.9901 20.248C93.1341 20.68 93.2061 21.136 93.2061 21.616C93.2061 22.768 92.7901 23.696 91.9581 24.4C91.1421 25.104 90.0221 25.456 88.5981 25.456ZM92.6014 25.408C92.3774 25.408 92.2094 25.312 92.0974 25.12C91.9854 24.944 91.9454 24.744 91.9774 24.52C91.9934 24.28 92.0894 24.072 92.2654 23.896C92.4414 23.704 92.6974 23.608 93.0334 23.608C93.4174 23.608 93.8654 23.456 94.3774 23.152C94.8894 22.848 95.4814 22.36 96.1534 21.688C96.8094 21 97.5534 20.096 98.3854 18.976C99.2334 17.84 100.169 16.448 101.193 14.8C101.337 14.576 101.521 14.48 101.745 14.512C101.985 14.544 102.169 14.648 102.297 14.824C102.441 15 102.449 15.192 102.321 15.4C101.121 17.416 100.057 19.072 99.1294 20.368C98.2014 21.664 97.3614 22.68 96.6094 23.416C95.8574 24.152 95.1614 24.672 94.5214 24.976C93.8654 25.264 93.2254 25.408 92.6014 25.408ZM101.793 25.408C101.041 25.408 100.425 25.24 99.9454 24.904C99.4814 24.552 99.1454 24.096 98.9374 23.536C98.7294 22.96 98.6414 22.32 98.6734 21.616C98.7054 20.912 98.8414 20.2 99.0814 19.48L100.593 14.92H98.7694C98.5934 14.92 98.4734 14.84 98.4094 14.68C98.3454 14.52 98.3534 14.28 98.4334 13.96C98.5294 13.64 98.6574 13.4 98.8174 13.24C98.9774 13.08 99.1454 13 99.3214 13H101.241L102.801 8.248C102.897 7.928 103.017 7.72 103.161 7.624C103.321 7.528 103.561 7.48 103.881 7.48C104.393 7.48 104.713 7.56 104.841 7.72C104.969 7.864 104.977 8.096 104.865 8.416L103.329 13H106.353C106.529 13 106.649 13.08 106.713 13.24C106.793 13.384 106.785 13.624 106.689 13.96C106.609 14.264 106.489 14.504 106.329 14.68C106.169 14.84 106.001 14.92 105.825 14.92H102.705L101.121 19.696C100.897 20.368 100.769 20.952 100.737 21.448C100.721 21.944 100.769 22.352 100.881 22.672C101.009 22.992 101.193 23.232 101.433 23.392C101.673 23.536 101.945 23.608 102.249 23.608C102.473 23.608 102.641 23.704 102.753 23.896C102.865 24.072 102.905 24.28 102.873 24.52C102.841 24.744 102.737 24.944 102.561 25.12C102.385 25.312 102.129 25.408 101.793 25.408ZM101.883 25.408C101.579 25.408 101.379 25.312 101.283 25.12C101.171 24.944 101.147 24.744 101.211 24.52C101.259 24.28 101.379 24.072 101.571 23.896C101.763 23.704 102.011 23.608 102.315 23.608C102.971 23.608 103.755 23.424 104.667 23.056C105.563 22.688 106.571 22.136 107.691 21.4C107.883 21.272 108.059 21.248 108.219 21.328C108.379 21.408 108.499 21.544 108.579 21.736C108.675 21.928 108.707 22.128 108.675 22.336C108.643 22.544 108.539 22.712 108.363 22.84C107.419 23.464 106.547 23.968 105.747 24.352C104.931 24.72 104.203 24.984 103.563 25.144C102.907 25.32 102.347 25.408 101.883 25.408ZM107.714 21.568C108.002 21.392 108.282 21.208 108.554 21.016C108.826 20.824 109.098 20.632 109.37 20.44C110.09 19.912 110.738 19.368 111.314 18.808C111.89 18.248 112.346 17.696 112.682 17.152C113.034 16.608 113.21 16.104 113.21 15.64C113.21 15.272 113.13 14.984 112.97 14.776C112.81 14.568 112.57 14.464 112.25 14.464C112.026 14.464 111.858 14.368 111.746 14.176C111.65 13.984 111.618 13.76 111.65 13.504C111.682 13.248 111.786 13.024 111.962 12.832C112.154 12.64 112.418 12.544 112.754 12.544C113.234 12.544 113.674 12.648 114.074 12.856C114.474 13.048 114.786 13.336 115.01 13.72C115.25 14.088 115.37 14.536 115.37 15.064C115.37 15.784 115.138 16.544 114.674 17.344C114.226 18.128 113.626 18.912 112.874 19.696C112.122 20.464 111.282 21.184 110.354 21.856C110.05 22.064 109.738 22.28 109.418 22.504C109.098 22.712 108.778 22.912 108.458 23.104L107.714 21.568ZM111.394 25.408C110.834 25.408 110.33 25.32 109.882 25.144C109.418 24.968 109.018 24.72 108.682 24.4C108.33 24.08 108.034 23.704 107.794 23.272C107.554 22.84 107.378 22.368 107.266 21.856C107.138 21.344 107.074 20.8 107.074 20.224C107.074 19.472 107.178 18.656 107.386 17.776C107.594 16.88 107.93 16.04 108.394 15.256C108.842 14.456 109.426 13.808 110.146 13.312C110.866 12.8 111.738 12.544 112.762 12.544C112.986 12.544 113.154 12.64 113.266 12.832C113.362 13.024 113.394 13.248 113.362 13.504C113.314 13.76 113.202 13.984 113.026 14.176C112.834 14.368 112.57 14.464 112.234 14.464C111.738 14.464 111.298 14.664 110.914 15.064C110.53 15.464 110.218 15.968 109.978 16.576C109.722 17.184 109.53 17.816 109.402 18.472C109.274 19.112 109.21 19.688 109.21 20.2C109.21 20.648 109.266 21.072 109.378 21.472C109.474 21.872 109.634 22.232 109.858 22.552C110.066 22.856 110.346 23.104 110.698 23.296C111.05 23.472 111.474 23.56 111.97 23.56C112.578 23.56 113.346 23.248 114.274 22.624C115.186 21.984 116.242 20.96 117.442 19.552C118.642 18.128 119.946 16.24 121.354 13.888C121.434 13.76 121.554 13.744 121.714 13.84C121.89 13.936 122.042 14.072 122.17 14.248C122.298 14.408 122.322 14.552 122.242 14.68C120.77 17.4 119.378 19.544 118.066 21.112C116.77 22.664 115.57 23.768 114.466 24.424C113.346 25.08 112.322 25.408 111.394 25.408ZM127.762 25.408C127.346 25.408 126.97 25.384 126.634 25.336C126.314 25.288 126.002 25.24 125.698 25.192C125.394 25.16 125.066 25.144 124.714 25.144C124.378 25.16 123.978 25.232 123.514 25.36L123.634 24.52C123.97 24.376 124.346 24.248 124.762 24.136C125.194 24.024 125.626 23.928 126.058 23.848C126.49 23.768 126.89 23.712 127.258 23.68C127.642 23.632 127.962 23.608 128.218 23.608C128.362 23.608 128.458 23.704 128.506 23.896C128.554 24.072 128.554 24.28 128.506 24.52C128.458 24.744 128.37 24.944 128.242 25.12C128.114 25.312 127.954 25.408 127.762 25.408ZM113.026 37.456C112.722 37.456 112.402 37.384 112.066 37.24C111.714 37.096 111.418 36.848 111.178 36.496C110.938 36.144 110.818 35.656 110.818 35.032C110.818 34.632 110.89 34.184 111.034 33.688C111.178 33.208 111.394 32.672 111.682 32.08C111.954 31.488 112.298 30.856 112.714 30.184C113.13 29.512 113.61 28.792 114.154 28.024C114.682 27.272 115.266 26.48 115.906 25.648C116.546 24.832 117.234 23.984 117.97 23.104L121.138 13.408C121.25 13.088 121.378 12.88 121.522 12.784C121.682 12.688 121.914 12.64 122.218 12.64C122.714 12.64 123.026 12.72 123.154 12.88C123.298 13.024 123.314 13.256 123.202 13.576L121.714 18.112C122.658 16.784 123.514 15.712 124.282 14.896C125.05 14.08 125.77 13.488 126.442 13.12C127.114 12.736 127.77 12.544 128.41 12.544C129.21 12.544 129.842 12.808 130.306 13.336C130.77 13.864 131.002 14.608 131.002 15.568C131.002 16.464 130.858 17.376 130.57 18.304C130.282 19.232 129.874 20.12 129.346 20.968C128.834 21.816 128.226 22.576 127.522 23.248C126.834 23.904 126.074 24.432 125.242 24.832C124.41 25.216 123.546 25.408 122.65 25.408C122.058 25.408 121.514 25.312 121.018 25.12C120.538 24.928 120.09 24.68 119.674 24.376L116.962 32.728C116.562 33.96 116.17 34.92 115.786 35.608C115.386 36.296 114.962 36.776 114.514 37.048C114.066 37.32 113.57 37.456 113.026 37.456ZM112.858 35.104C112.858 35.296 112.898 35.432 112.978 35.512C113.042 35.608 113.146 35.656 113.29 35.656C113.402 35.656 113.514 35.608 113.626 35.512C113.738 35.432 113.858 35.272 113.986 35.032C114.098 34.792 114.242 34.44 114.418 33.976C114.594 33.528 114.802 32.928 115.042 32.176L116.77 26.848C116.354 27.472 115.97 28.072 115.618 28.648C115.25 29.24 114.922 29.8 114.634 30.328C114.33 30.856 114.074 31.352 113.866 31.816C113.642 32.296 113.458 32.736 113.314 33.136C113.17 33.536 113.058 33.896 112.978 34.216C112.898 34.552 112.858 34.848 112.858 35.104ZM120.37 22.672C120.754 22.96 121.146 23.176 121.546 23.32C121.946 23.464 122.362 23.536 122.794 23.536C123.466 23.536 124.106 23.368 124.714 23.032C125.322 22.696 125.874 22.256 126.37 21.712C126.882 21.152 127.322 20.536 127.69 19.864C128.058 19.192 128.338 18.512 128.53 17.824C128.738 17.12 128.842 16.464 128.842 15.856C128.842 15.392 128.746 15.048 128.554 14.824C128.378 14.584 128.106 14.464 127.738 14.464C127.466 14.464 127.17 14.544 126.85 14.704C126.546 14.864 126.194 15.136 125.794 15.52C125.394 15.888 124.93 16.392 124.402 17.032C123.89 17.656 123.298 18.432 122.626 19.36C121.97 20.288 121.218 21.392 120.37 22.672ZM127.805 25.408C127.501 25.408 127.301 25.312 127.205 25.12C127.093 24.944 127.061 24.744 127.109 24.52C127.157 24.28 127.277 24.072 127.469 23.896C127.661 23.704 127.909 23.608 128.213 23.608C128.693 23.608 129.213 23.424 129.773 23.056C130.317 22.688 130.949 22.096 131.669 21.28C132.373 20.448 133.205 19.352 134.165 17.992C135.125 16.616 136.237 14.928 137.501 12.928C137.629 12.72 137.805 12.64 138.029 12.688C138.269 12.736 138.461 12.848 138.605 13.024C138.765 13.2 138.781 13.392 138.653 13.6C137.389 15.808 136.253 17.672 135.245 19.192C134.237 20.696 133.317 21.904 132.485 22.816C131.653 23.728 130.861 24.392 130.109 24.808C129.357 25.208 128.589 25.408 127.805 25.408ZM136.973 25.456C136.189 25.456 135.477 25.336 134.837 25.096C134.213 24.856 133.781 24.6 133.541 24.328C133.301 24.072 133.189 23.856 133.205 23.68C133.221 23.488 133.333 23.296 133.541 23.104C133.733 22.912 133.901 22.824 134.045 22.84C134.205 22.856 134.413 22.952 134.669 23.128C134.941 23.304 135.261 23.464 135.629 23.608C136.013 23.736 136.421 23.8 136.853 23.8C137.685 23.8 138.333 23.6 138.797 23.2C139.261 22.8 139.493 22.248 139.493 21.544C139.493 21.144 139.429 20.744 139.301 20.344C139.173 19.928 139.005 19.512 138.797 19.096C138.589 18.68 138.373 18.256 138.149 17.824C137.925 17.392 137.709 16.944 137.501 16.48C137.293 16.016 137.125 15.536 136.997 15.04C136.869 14.528 136.805 14 136.805 13.456C136.805 12.608 136.997 12.008 137.381 11.656C137.781 11.288 138.197 11.104 138.629 11.104C138.997 11.104 139.277 11.208 139.469 11.416C139.677 11.608 139.781 11.856 139.781 12.16C139.781 12.48 139.653 12.824 139.397 13.192C139.157 13.56 138.901 13.904 138.629 14.224C138.629 14.608 138.701 14.992 138.845 15.376C138.989 15.744 139.173 16.128 139.397 16.528C139.621 16.912 139.853 17.304 140.093 17.704C140.349 18.104 140.589 18.52 140.813 18.952C141.037 19.368 141.221 19.8 141.365 20.248C141.509 20.68 141.581 21.136 141.581 21.616C141.581 22.768 141.165 23.696 140.333 24.4C139.517 25.104 138.397 25.456 136.973 25.456Z" fill="black"/>
</svg>
